COMMENT vga
STARTFONT 2.1
COMMENT This font was automatically resized by bdfresize-1.5
COMMENT   mag_x = 2/1, mag_y = 2/1, blackness = 1
FONT vga
SIZE 28 75 75
FONTBOUNDINGBOX 16 28 0 -8
STARTPROPERTIES 4
FONT_DESCENT 8
FONT_ASCENT 20
AVERAGE_WIDTH 160
DEFAULT_CHAR 0
ENDPROPERTIES
CHARS 221
STARTCHAR u0020
ENCODING 32
SWIDTH 1332 0
DWIDTH 16 0
BBX 16 28 0 -8
BITMAP
0000
0000
0000
0000
0000
0000
0000
0000
0000
0000
0000
0000
0000
0000
0000
0000
0000
0000
0000
0000
0000
0000
0000
0000
0000
0000
0000
0000
ENDCHAR
STARTCHAR u005A
ENCODING 90
SWIDTH 1332 0
DWIDTH 16 0
BBX 16 28 0 -8
BITMAP
0000
0000
0000
0000
0000
0000
FFFC
FFFC
F03C
F03C
C03C
C03C
00F0
00F0
03C0
03C0
0F00
0F00
3C0C
3C0C
F03C
F03C
FFFC
FFFC
0000
0000
0000
0000
ENDCHAR
STARTCHAR u0076
ENCODING 118
SWIDTH 1332 0
DWIDTH 16 0
BBX 16 28 0 -8
BITMAP
0000
0000
0000
0000
0000
0000
0000
0000
0000
0000
0000
0000
F03C
F03C
F03C
F03C
F03C
F03C
F03C
F03C
3CF0
3CF0
0FC0
0FC0
0000
0000
0000
0000
ENDCHAR
STARTCHAR u0047
ENCODING 71
SWIDTH 1332 0
DWIDTH 16 0
BBX 16 28 0 -8
BITMAP
0000
0000
0000
0000
0000
0000
0FF0
0FF0
3C3C
3C3C
F00C
F00C
F000
F000
F000
F000
F3FC
F3FC
F03C
F03C
3C3C
3C3C
0FCC
0FCC
0000
0000
0000
0000
ENDCHAR
STARTCHAR u03BF
ENCODING 959
SWIDTH 1332 0
DWIDTH 16 0
BBX 16 28 0 -8
BITMAP
0000
0000
0000
0000
0000
0000
0000
0000
0000
0000
0000
0000
3FF0
3FF0
F03C
F03C
F03C
F03C
F03C
F03C
F03C
F03C
3FF0
3FF0
0000
0000
0000
0000
ENDCHAR
STARTCHAR u03BB
ENCODING 955
SWIDTH 1332 0
DWIDTH 16 0
BBX 16 28 0 -8
BITMAP
0000
0000
0000
0000
0000
0000
0FC0
0FC0
3CF0
3CF0
00F0
00F0
00F0
00F0
00F0
00F0
0F3C
0F3C
3C3C
3C3C
3C3C
3C3C
3C3C
3C3C
0000
0000
0000
0000
ENDCHAR
STARTCHAR u03AE
ENCODING 942
SWIDTH 1332 0
DWIDTH 16 0
BBX 16 28 0 -8
BITMAP
0000
0000
0000
0000
0000
0000
0FC0
0FC0
0300
0300
0000
0000
F3F0
F3F0
3C3C
3C3C
3C3C
3C3C
3C3C
3C3C
3C3C
3C3C
3C3C
3C3C
003C
003C
003C
003C
ENDCHAR
STARTCHAR u0066
ENCODING 102
SWIDTH 1332 0
DWIDTH 16 0
BBX 16 28 0 -8
BITMAP
0000
0000
0000
0000
0000
0000
03F0
03F0
0F3C
0F3C
0F0C
0F0C
0F00
0F00
3FC0
3FC0
0F00
0F00
0F00
0F00
0F00
0F00
3FC0
3FC0
0000
0000
0000
0000
ENDCHAR
STARTCHAR u0394
ENCODING 916
SWIDTH 1332 0
DWIDTH 16 0
BBX 16 28 0 -8
BITMAP
0000
0000
0000
0000
0000
0000
0300
0300
0FC0
0FC0
3CF0
3CF0
F03C
F03C
F03C
F03C
F03C
F03C
F03C
F03C
F03C
F03C
FFFC
FFFC
0000
0000
0000
0000
ENDCHAR
STARTCHAR u0372
ENCODING 882
SWIDTH 1332 0
DWIDTH 16 0
BBX 16 28 0 -8
BITMAP
0000
0000
00F0
00F0
003C
003C
003C
003C
00F0
00F0
0000
0000
0000
0000
0000
0000
0000
0000
0000
0000
0000
0000
0000
0000
0000
0000
0000
0000
ENDCHAR
STARTCHAR u03A9
ENCODING 937
SWIDTH 1332 0
DWIDTH 16 0
BBX 16 28 0 -8
BITMAP
0000
0000
0000
0000
0000
0000
0FF0
0FF0
3C3C
3C3C
F00F
F00F
F00F
F00F
F00F
F00F
F00F
F00F
3C3C
3C3C
0C30
0C30
FC3F
FC3F
0000
0000
0000
0000
ENDCHAR
STARTCHAR u0390
ENCODING 912
SWIDTH 1332 0
DWIDTH 16 0
BBX 16 28 0 -8
BITMAP
0000
0000
00F0
00F0
00C0
00C0
0000
0000
3C3C
3C3C
0000
0000
03C0
03C0
03C0
03C0
03C0
03C0
03C0
03C0
03C0
03C0
00FC
00FC
0000
0000
0000
0000
ENDCHAR
STARTCHAR u25CB
ENCODING 9675
SWIDTH 1332 0
DWIDTH 16 0
BBX 16 28 0 -8
BITMAP
0000
0000
0000
0000
0000
0000
0000
0000
0FF0
0FF0
3C3C
3C3C
300C
300C
300C
300C
3C3C
3C3C
0FF0
0FF0
0000
0000
0000
0000
0000
0000
0000
0000
ENDCHAR
STARTCHAR u007D
ENCODING 125
SWIDTH 1332 0
DWIDTH 16 0
BBX 16 28 0 -8
BITMAP
0000
0000
0000
0000
0000
0000
3F00
3F00
03C0
03C0
03C0
03C0
03C0
03C0
00FC
00FC
03C0
03C0
03C0
03C0
03C0
03C0
3F00
3F00
0000
0000
0000
0000
ENDCHAR
STARTCHAR u002C
ENCODING 44
SWIDTH 1332 0
DWIDTH 16 0
BBX 16 28 0 -8
BITMAP
0000
0000
0000
0000
0000
0000
0000
0000
0000
0000
0000
0000
0000
0000
0000
0000
0000
0000
03C0
03C0
03C0
03C0
03C0
03C0
0F00
0F00
0000
0000
ENDCHAR
STARTCHAR u0399
ENCODING 921
SWIDTH 1332 0
DWIDTH 16 0
BBX 16 28 0 -8
BITMAP
0000
0000
0000
0000
0000
0000
0FF0
0FF0
03C0
03C0
03C0
03C0
03C0
03C0
03C0
03C0
03C0
03C0
03C0
03C0
03C0
03C0
0FF0
0FF0
0000
0000
0000
0000
ENDCHAR
STARTCHAR u0037
ENCODING 55
SWIDTH 1332 0
DWIDTH 16 0
BBX 16 28 0 -8
BITMAP
0000
0000
0000
0000
0000
0000
FFFC
FFFC
F03C
F03C
003C
003C
003C
003C
00F0
00F0
03C0
03C0
0F00
0F00
0F00
0F00
0F00
0F00
0000
0000
0000
0000
ENDCHAR
STARTCHAR u0054
ENCODING 84
SWIDTH 1332 0
DWIDTH 16 0
BBX 16 28 0 -8
BITMAP
0000
0000
0000
0000
0000
0000
3FFC
3FFC
3FFC
3FFC
33CC
33CC
03C0
03C0
03C0
03C0
03C0
03C0
03C0
03C0
03C0
03C0
0FF0
0FF0
0000
0000
0000
0000
ENDCHAR
STARTCHAR u005F
ENCODING 95
SWIDTH 1332 0
DWIDTH 16 0
BBX 16 28 0 -8
BITMAP
0000
0000
0000
0000
0000
0000
0000
0000
0000
0000
0000
0000
0000
0000
0000
0000
0000
0000
0000
0000
0000
0000
0000
0000
0000
0000
FFFF
FFFF
ENDCHAR
STARTCHAR u0039
ENCODING 57
SWIDTH 1332 0
DWIDTH 16 0
BBX 16 28 0 -8
BITMAP
0000
0000
0000
0000
0000
0000
3FF0
3FF0
F03C
F03C
F03C
F03C
F03C
F03C
3FFC
3FFC
003C
003C
003C
003C
00F0
00F0
3FC0
3FC0
0000
0000
0000
0000
ENDCHAR
STARTCHAR u0397
ENCODING 919
SWIDTH 1332 0
DWIDTH 16 0
BBX 16 28 0 -8
BITMAP
0000
0000
0000
0000
0000
0000
F03C
F03C
F03C
F03C
F03C
F03C
F03C
F03C
FFFC
FFFC
F03C
F03C
F03C
F03C
F03C
F03C
F03C
F03C
0000
0000
0000
0000
ENDCHAR
STARTCHAR u039B
ENCODING 923
SWIDTH 1332 0
DWIDTH 16 0
BBX 16 28 0 -8
BITMAP
0000
0000
0000
0000
0000
0000
0300
0300
0FC0
0FC0
3CF0
3CF0
F03C
F03C
F03C
F03C
F03C
F03C
F03C
F03C
F03C
F03C
F03C
F03C
0000
0000
0000
0000
ENDCHAR
STARTCHAR u266C
ENCODING 9836
SWIDTH 1332 0
DWIDTH 16 0
BBX 16 28 0 -8
BITMAP
0000
0000
0000
0000
3FFF
3FFF
3C0F
3C0F
3FFF
3FFF
3C0F
3C0F
3C0F
3C0F
3C0F
3C0F
3C0F
3C0F
3C3F
3C3F
FC3F
FC3F
FC3C
FC3C
F000
F000
0000
0000
ENDCHAR
STARTCHAR u00A3
ENCODING 163
SWIDTH 1332 0
DWIDTH 16 0
BBX 16 28 0 -8
BITMAP
0000
0000
0000
0000
0FC0
0FC0
3CF0
3CF0
3C30
3C30
3C00
3C00
FF00
FF00
3C00
3C00
3C00
3C00
3C00
3C00
FCF0
FCF0
FFF0
FFF0
0000
0000
0000
0000
ENDCHAR
STARTCHAR u006D
ENCODING 109
SWIDTH 1332 0
DWIDTH 16 0
BBX 16 28 0 -8
BITMAP
0000
0000
0000
0000
0000
0000
0000
0000
0000
0000
0000
0000
FCF0
FCF0
FFFC
FFFC
F33C
F33C
F33C
F33C
F33C
F33C
F03C
F03C
0000
0000
0000
0000
ENDCHAR
STARTCHAR u2190
ENCODING 8592
SWIDTH 1332 0
DWIDTH 16 0
BBX 16 28 0 -8
BITMAP
0000
0000
0000
0000
0000
0000
0000
0000
0000
0000
0F00
0F00
3C00
3C00
FFFC
FFFC
3C00
3C00
0F00
0F00
0000
0000
0000
0000
0000
0000
0000
0000
ENDCHAR
STARTCHAR u03F3
ENCODING 1011
SWIDTH 1332 0
DWIDTH 16 0
BBX 16 28 0 -8
BITMAP
003C
003C
00F0
00F0
03C0
03C0
0000
0000
0000
0000
0000
0000
0000
0000
0000
0000
0000
0000
0000
0000
0000
0000
0000
0000
0000
0000
0000
0000
ENDCHAR
STARTCHAR u0059
ENCODING 89
SWIDTH 1332 0
DWIDTH 16 0
BBX 16 28 0 -8
BITMAP
0000
0000
0000
0000
0000
0000
3C3C
3C3C
3C3C
3C3C
3C3C
3C3C
3C3C
3C3C
0FF0
0FF0
03C0
03C0
03C0
03C0
03C0
03C0
0FF0
0FF0
0000
0000
0000
0000
ENDCHAR
STARTCHAR u263C
ENCODING 9788
SWIDTH 1332 0
DWIDTH 16 0
BBX 16 28 0 -8
BITMAP
0000
0000
0000
0000
0000
0000
03C0
03C0
03C0
03C0
F3CF
F3CF
0FF0
0FF0
FC3F
FC3F
0FF0
0FF0
F3CF
F3CF
03C0
03C0
03C0
03C0
0000
0000
0000
0000
ENDCHAR
STARTCHAR u2666
ENCODING 9830
SWIDTH 1332 0
DWIDTH 16 0
BBX 16 28 0 -8
BITMAP
0000
0000
0000
0000
0000
0000
0000
0000
0300
0300
0FC0
0FC0
3FF0
3FF0
FFFC
FFFC
3FF0
3FF0
0FC0
0FC0
0300
0300
0000
0000
0000
0000
0000
0000
ENDCHAR
STARTCHAR u0023
ENCODING 35
SWIDTH 1332 0
DWIDTH 16 0
BBX 16 28 0 -8
BITMAP
0000
0000
0000
0000
0000
0000
0000
0000
3CF0
3CF0
3CF0
3CF0
FFFC
FFFC
3CF0
3CF0
3CF0
3CF0
FFFC
FFFC
3CF0
3CF0
3CF0
3CF0
0000
0000
0000
0000
ENDCHAR
STARTCHAR u03A6
ENCODING 934
SWIDTH 1332 0
DWIDTH 16 0
BBX 16 28 0 -8
BITMAP
0000
0000
0000
0000
0000
0000
0FF0
0FF0
03C0
03C0
3FFC
3FFC
C3C3
C3C3
C3C3
C3C3
3FFC
3FFC
03C0
03C0
03C0
03C0
0FF0
0FF0
0000
0000
0000
0000
ENDCHAR
STARTCHAR u004E
ENCODING 78
SWIDTH 1332 0
DWIDTH 16 0
BBX 16 28 0 -8
BITMAP
0000
0000
0000
0000
0000
0000
F03C
F03C
FC3C
FC3C
FF3C
FF3C
FFFC
FFFC
F3FC
F3FC
F0FC
F0FC
F03C
F03C
F03C
F03C
F03C
F03C
0000
0000
0000
0000
ENDCHAR
STARTCHAR u2665
ENCODING 9829
SWIDTH 1332 0
DWIDTH 16 0
BBX 16 28 0 -8
BITMAP
0000
0000
0000
0000
0000
0000
0000
0000
3CF0
3CF0
FFFC
FFFC
FFFC
FFFC
FFFC
FFFC
FFFC
FFFC
3FF0
3FF0
0FC0
0FC0
0300
0300
0000
0000
0000
0000
ENDCHAR
STARTCHAR u03A4
ENCODING 932
SWIDTH 1332 0
DWIDTH 16 0
BBX 16 28 0 -8
BITMAP
0000
0000
0000
0000
0000
0000
3FFC
3FFC
3FFC
3FFC
33CC
33CC
03C0
03C0
03C0
03C0
03C0
03C0
03C0
03C0
03C0
03C0
0FF0
0FF0
0000
0000
0000
0000
ENDCHAR
STARTCHAR u005D
ENCODING 93
SWIDTH 1332 0
DWIDTH 16 0
BBX 16 28 0 -8
BITMAP
0000
0000
0000
0000
0000
0000
0FF0
0FF0
00F0
00F0
00F0
00F0
00F0
00F0
00F0
00F0
00F0
00F0
00F0
00F0
00F0
00F0
0FF0
0FF0
0000
0000
0000
0000
ENDCHAR
STARTCHAR u006A
ENCODING 106
SWIDTH 1332 0
DWIDTH 16 0
BBX 16 28 0 -8
BITMAP
0000
0000
0000
0000
0000
0000
003C
003C
003C
003C
0000
0000
00FC
00FC
003C
003C
003C
003C
003C
003C
003C
003C
3C3C
3C3C
3C3C
3C3C
0FF0
0FF0
ENDCHAR
STARTCHAR u03B4
ENCODING 948
SWIDTH 1332 0
DWIDTH 16 0
BBX 16 28 0 -8
BITMAP
0000
0000
0000
0000
3FF0
3FF0
3C00
3C00
0F00
0F00
03C0
03C0
3FC0
3FC0
F0F0
F0F0
F0F0
F0F0
F0F0
F0F0
F0F0
F0F0
3FC0
3FC0
0000
0000
0000
0000
ENDCHAR
STARTCHAR u03C4
ENCODING 964
SWIDTH 1332 0
DWIDTH 16 0
BBX 16 28 0 -8
BITMAP
0000
0000
0000
0000
0000
0000
0000
0000
0000
0000
0000
0000
3FF0
3FF0
0F00
0F00
0F00
0F00
0F00
0F00
0F3C
0F3C
03F0
03F0
0000
0000
0000
0000
ENDCHAR
STARTCHAR u0041
ENCODING 65
SWIDTH 1332 0
DWIDTH 16 0
BBX 16 28 0 -8
BITMAP
0000
0000
0000
0000
0000
0000
0300
0300
0FC0
0FC0
3CF0
3CF0
F03C
F03C
F03C
F03C
FFFC
FFFC
F03C
F03C
F03C
F03C
F03C
F03C
0000
0000
0000
0000
ENDCHAR
STARTCHAR u03A7
ENCODING 935
SWIDTH 1332 0
DWIDTH 16 0
BBX 16 28 0 -8
BITMAP
0000
0000
0000
0000
0000
0000
F03C
F03C
F03C
F03C
3CF0
3CF0
3FF0
3FF0
0FC0
0FC0
3FF0
3FF0
3CF0
3CF0
F03C
F03C
F03C
F03C
0000
0000
0000
0000
ENDCHAR
STARTCHAR u03C8
ENCODING 968
SWIDTH 1332 0
DWIDTH 16 0
BBX 16 28 0 -8
BITMAP
0000
0000
0000
0000
0000
0000
0000
0000
0000
0000
0000
0000
F33C
F33C
F33C
F33C
F33C
F33C
F33C
F33C
F33C
F33C
3FF0
3FF0
0300
0300
0300
0300
ENDCHAR
STARTCHAR u266A
ENCODING 9834
SWIDTH 1332 0
DWIDTH 16 0
BBX 16 28 0 -8
BITMAP
0000
0000
0000
0000
0FFF
0FFF
0F0F
0F0F
0FFF
0FFF
0F00
0F00
0F00
0F00
0F00
0F00
0F00
0F00
3F00
3F00
FF00
FF00
FC00
FC00
0000
0000
0000
0000
ENDCHAR
STARTCHAR u2193
ENCODING 8595
SWIDTH 1332 0
DWIDTH 16 0
BBX 16 28 0 -8
BITMAP
0000
0000
0000
0000
03C0
03C0
03C0
03C0
03C0
03C0
03C0
03C0
03C0
03C0
03C0
03C0
03C0
03C0
3FFC
3FFC
0FF0
0FF0
03C0
03C0
0000
0000
0000
0000
ENDCHAR
STARTCHAR u0388
ENCODING 904
SWIDTH 1332 0
DWIDTH 16 0
BBX 16 28 0 -8
BITMAP
0000
0000
0000
0000
0000
0000
CFFF
CFFF
CF03
CF03
0F00
0F00
0F00
0F00
0FFC
0FFC
0F00
0F00
0F03
0F03
0F03
0F03
0FFF
0FFF
0000
0000
0000
0000
ENDCHAR
STARTCHAR u0072
ENCODING 114
SWIDTH 1332 0
DWIDTH 16 0
BBX 16 28 0 -8
BITMAP
0000
0000
0000
0000
0000
0000
0000
0000
0000
0000
0000
0000
F3F0
F3F0
3F3C
3F3C
3C3C
3C3C
3C00
3C00
3C00
3C00
FF00
FF00
0000
0000
0000
0000
ENDCHAR
STARTCHAR u003A
ENCODING 58
SWIDTH 1332 0
DWIDTH 16 0
BBX 16 28 0 -8
BITMAP
0000
0000
0000
0000
0000
0000
0000
0000
0000
0000
03C0
03C0
03C0
03C0
0000
0000
0000
0000
03C0
03C0
03C0
03C0
0000
0000
0000
0000
0000
0000
ENDCHAR
STARTCHAR u038C
ENCODING 908
SWIDTH 1332 0
DWIDTH 16 0
BBX 16 28 0 -8
BITMAP
0000
0000
0000
0000
0000
0000
C3FC
C3FC
CF0F
CF0F
0F0F
0F0F
0F0F
0F0F
0F0F
0F0F
0F0F
0F0F
0F0F
0F0F
0F0F
0F0F
03FC
03FC
0000
0000
0000
0000
ENDCHAR
STARTCHAR u0051
ENCODING 81
SWIDTH 1332 0
DWIDTH 16 0
BBX 16 28 0 -8
BITMAP
0000
0000
0000
0000
0000
0000
3FF0
3FF0
F03C
F03C
F03C
F03C
F03C
F03C
F03C
F03C
F03C
F03C
F33C
F33C
F3FC
F3FC
3FF0
3FF0
00F0
00F0
00FC
00FC
ENDCHAR
STARTCHAR u2195
ENCODING 8597
SWIDTH 1332 0
DWIDTH 16 0
BBX 16 28 0 -8
BITMAP
0000
0000
0000
0000
03C0
03C0
0FF0
0FF0
3FFC
3FFC
03C0
03C0
03C0
03C0
03C0
03C0
3FFC
3FFC
0FF0
0FF0
03C0
03C0
0000
0000
0000
0000
0000
0000
ENDCHAR
STARTCHAR u003C
ENCODING 60
SWIDTH 1332 0
DWIDTH 16 0
BBX 16 28 0 -8
BITMAP
0000
0000
0000
0000
0000
0000
0000
0000
003C
003C
00F0
00F0
03C0
03C0
0F00
0F00
0F00
0F00
03C0
03C0
00F0
00F0
003C
003C
0000
0000
0000
0000
ENDCHAR
STARTCHAR u0065
ENCODING 101
SWIDTH 1332 0
DWIDTH 16 0
BBX 16 28 0 -8
BITMAP
0000
0000
0000
0000
0000
0000
0000
0000
0000
0000
0000
0000
3FF0
3FF0
F03C
F03C
FFFC
FFFC
F000
F000
F03C
F03C
3FF0
3FF0
0000
0000
0000
0000
ENDCHAR
STARTCHAR u0049
ENCODING 73
SWIDTH 1332 0
DWIDTH 16 0
BBX 16 28 0 -8
BITMAP
0000
0000
0000
0000
0000
0000
0FF0
0FF0
03C0
03C0
03C0
03C0
03C0
03C0
03C0
03C0
03C0
03C0
03C0
03C0
03C0
03C0
0FF0
0FF0
0000
0000
0000
0000
ENDCHAR
STARTCHAR u0056
ENCODING 86
SWIDTH 1332 0
DWIDTH 16 0
BBX 16 28 0 -8
BITMAP
0000
0000
0000
0000
0000
0000
F03C
F03C
F03C
F03C
F03C
F03C
F03C
F03C
F03C
F03C
F03C
F03C
3CF0
3CF0
0FC0
0FC0
0300
0300
0000
0000
0000
0000
ENDCHAR
STARTCHAR u004C
ENCODING 76
SWIDTH 1332 0
DWIDTH 16 0
BBX 16 28 0 -8
BITMAP
0000
0000
0000
0000
0000
0000
FF00
FF00
3C00
3C00
3C00
3C00
3C00
3C00
3C00
3C00
3C00
3C00
3C0C
3C0C
3C3C
3C3C
FFFC
FFFC
0000
0000
0000
0000
ENDCHAR
STARTCHAR u003E
ENCODING 62
SWIDTH 1332 0
DWIDTH 16 0
BBX 16 28 0 -8
BITMAP
0000
0000
0000
0000
0000
0000
0000
0000
3C00
3C00
0F00
0F00
03C0
03C0
00F0
00F0
00F0
00F0
03C0
03C0
0F00
0F00
3C00
3C00
0000
0000
0000
0000
ENDCHAR
STARTCHAR u0043
ENCODING 67
SWIDTH 1332 0
DWIDTH 16 0
BBX 16 28 0 -8
BITMAP
0000
0000
0000
0000
0000
0000
0FF0
0FF0
3C3C
3C3C
F00C
F00C
F000
F000
F000
F000
F000
F000
F00C
F00C
3C3C
3C3C
0FF0
0FF0
0000
0000
0000
0000
ENDCHAR
STARTCHAR u2015
ENCODING 8213
SWIDTH 1332 0
DWIDTH 16 0
BBX 16 28 0 -8
BITMAP
0000
0000
0000
0000
0000
0000
0000
0000
0000
0000
0000
0000
0000
0000
FFFF
FFFF
0000
0000
0000
0000
0000
0000
0000
0000
0000
0000
0000
0000
ENDCHAR
STARTCHAR u0395
ENCODING 917
SWIDTH 1332 0
DWIDTH 16 0
BBX 16 28 0 -8
BITMAP
0000
0000
0000
0000
0000
0000
FFFC
FFFC
3C3C
3C3C
3C0C
3C0C
3CC0
3CC0
3FC0
3FC0
3CC0
3CC0
3C0C
3C0C
3C3C
3C3C
FFFC
FFFC
0000
0000
0000
0000
ENDCHAR
STARTCHAR u038F
ENCODING 911
SWIDTH 1332 0
DWIDTH 16 0
BBX 16 28 0 -8
BITMAP
0000
0000
0000
0000
0000
0000
C3FC
C3FC
CF0F
CF0F
0C03
0C03
0C03
0C03
0C03
0C03
0C03
0C03
0F0F
0F0F
030C
030C
0F0F
0F0F
0000
0000
0000
0000
ENDCHAR
STARTCHAR u039E
ENCODING 926
SWIDTH 1332 0
DWIDTH 16 0
BBX 16 28 0 -8
BITMAP
0000
0000
0000
0000
0000
0000
FFFC
FFFC
C00C
C00C
0000
0000
0000
0000
3FF0
3FF0
0000
0000
0000
0000
C00C
C00C
FFFC
FFFC
0000
0000
0000
0000
ENDCHAR
STARTCHAR u03B0
ENCODING 944
SWIDTH 1332 0
DWIDTH 16 0
BBX 16 28 0 -8
BITMAP
0000
0000
0000
0000
03C0
03C0
F00F
F00F
0000
0000
0000
0000
FC3F
FC3F
3C3C
3C3C
3C3C
3C3C
3C3C
3C3C
3C3C
3C3C
0FF0
0FF0
0000
0000
0000
0000
ENDCHAR
STARTCHAR u03AB
ENCODING 939
SWIDTH 1332 0
DWIDTH 16 0
BBX 16 28 0 -8
BITMAP
0000
0000
F00F
F00F
0000
0000
3C3C
3C3C
3C3C
3C3C
3C3C
3C3C
3C3C
3C3C
0FF0
0FF0
03C0
03C0
03C0
03C0
03C0
03C0
0FF0
0FF0
0000
0000
0000
0000
ENDCHAR
STARTCHAR u039C
ENCODING 924
SWIDTH 1332 0
DWIDTH 16 0
BBX 16 28 0 -8
BITMAP
0000
0000
0000
0000
0000
0000
F03C
F03C
FCFC
FCFC
FFFC
FFFC
FFFC
FFFC
F33C
F33C
F03C
F03C
F03C
F03C
F03C
F03C
F03C
F03C
0000
0000
0000
0000
ENDCHAR
STARTCHAR u006E
ENCODING 110
SWIDTH 1332 0
DWIDTH 16 0
BBX 16 28 0 -8
BITMAP
0000
0000
0000
0000
0000
0000
0000
0000
0000
0000
0000
0000
F3F0
F3F0
3C3C
3C3C
3C3C
3C3C
3C3C
3C3C
3C3C
3C3C
3C3C
3C3C
0000
0000
0000
0000
ENDCHAR
STARTCHAR u0052
ENCODING 82
SWIDTH 1332 0
DWIDTH 16 0
BBX 16 28 0 -8
BITMAP
0000
0000
0000
0000
0000
0000
FFF0
FFF0
3C3C
3C3C
3C3C
3C3C
3C3C
3C3C
3FF0
3FF0
3CF0
3CF0
3C3C
3C3C
3C3C
3C3C
FC3C
FC3C
0000
0000
0000
0000
ENDCHAR
STARTCHAR u03C6
ENCODING 966
SWIDTH 1332 0
DWIDTH 16 0
BBX 16 28 0 -8
BITMAP
0000
0000
0000
0000
0000
0000
0000
0000
0000
0000
0000
0000
33F0
33F0
F33C
F33C
F33C
F33C
F33C
F33C
F33C
F33C
3FF0
3FF0
0300
0300
0300
0300
ENDCHAR
STARTCHAR u0391
ENCODING 913
SWIDTH 1332 0
DWIDTH 16 0
BBX 16 28 0 -8
BITMAP
0000
0000
0000
0000
0000
0000
0300
0300
0FC0
0FC0
3CF0
3CF0
F03C
F03C
F03C
F03C
FFFC
FFFC
F03C
F03C
F03C
F03C
F03C
F03C
0000
0000
0000
0000
ENDCHAR
STARTCHAR u03CD
ENCODING 973
SWIDTH 1332 0
DWIDTH 16 0
BBX 16 28 0 -8
BITMAP
0000
0000
0000
0000
0000
0000
0FC0
0FC0
0300
0300
0000
0000
FC3F
FC3F
3C3C
3C3C
3C3C
3C3C
3C3C
3C3C
3C3C
3C3C
0FF0
0FF0
0000
0000
0000
0000
ENDCHAR
STARTCHAR u2663
ENCODING 9827
SWIDTH 1332 0
DWIDTH 16 0
BBX 16 28 0 -8
BITMAP
0000
0000
0000
0000
0000
0000
03C0
03C0
0FF0
0FF0
0FF0
0FF0
FC3F
FC3F
FC3F
FC3F
FC3F
FC3F
03C0
03C0
03C0
03C0
0FF0
0FF0
0000
0000
0000
0000
ENDCHAR
STARTCHAR u25C4
ENCODING 9668
SWIDTH 1332 0
DWIDTH 16 0
BBX 16 28 0 -8
BITMAP
0000
0000
000C
000C
003C
003C
00FC
00FC
03FC
03FC
0FFC
0FFC
FFFC
FFFC
0FFC
0FFC
03FC
03FC
00FC
00FC
003C
003C
000C
000C
0000
0000
0000
0000
ENDCHAR
STARTCHAR u03BD
ENCODING 957
SWIDTH 1332 0
DWIDTH 16 0
BBX 16 28 0 -8
BITMAP
0000
0000
0000
0000
0000
0000
0000
0000
0000
0000
0000
0000
C00C
C00C
F03C
F03C
F03C
F03C
3CF0
3CF0
3CF0
3CF0
0FC0
0FC0
0000
0000
0000
0000
ENDCHAR
STARTCHAR u03A5
ENCODING 933
SWIDTH 1332 0
DWIDTH 16 0
BBX 16 28 0 -8
BITMAP
0000
0000
0000
0000
0000
0000
3C3C
3C3C
3C3C
3C3C
3C3C
3C3C
3C3C
3C3C
0FF0
0FF0
03C0
03C0
03C0
03C0
03C0
03C0
0FF0
0FF0
0000
0000
0000
0000
ENDCHAR
STARTCHAR u00A8
ENCODING 168
SWIDTH 1332 0
DWIDTH 16 0
BBX 16 28 0 -8
BITMAP
0000
0000
0000
0000
3C3C
3C3C
3C3C
3C3C
0000
0000
0000
0000
0000
0000
0000
0000
0000
0000
0000
0000
0000
0000
0000
0000
0000
0000
0000
0000
ENDCHAR
STARTCHAR u0070
ENCODING 112
SWIDTH 1332 0
DWIDTH 16 0
BBX 16 28 0 -8
BITMAP
0000
0000
0000
0000
0000
0000
0000
0000
0000
0000
F3F0
F3F0
3C3C
3C3C
3C3C
3C3C
3C3C
3C3C
3C3C
3C3C
3FF0
3FF0
3C00
3C00
3C00
3C00
3C00
3C00
ENDCHAR
STARTCHAR u0045
ENCODING 69
SWIDTH 1332 0
DWIDTH 16 0
BBX 16 28 0 -8
BITMAP
0000
0000
0000
0000
0000
0000
FFFC
FFFC
3C3C
3C3C
3C0C
3C0C
3CC0
3CC0
3FC0
3FC0
3CC0
3CC0
3C0C
3C0C
3C3C
3C3C
FFFC
FFFC
0000
0000
0000
0000
ENDCHAR
STARTCHAR u03CA
ENCODING 970
SWIDTH 1332 0
DWIDTH 16 0
BBX 16 28 0 -8
BITMAP
0000
0000
0000
0000
0000
0000
F00F
F00F
0000
0000
0000
0000
03C0
03C0
03C0
03C0
03C0
03C0
03C0
03C0
03C0
03C0
00FC
00FC
0000
0000
0000
0000
ENDCHAR
STARTCHAR u0393
ENCODING 915
SWIDTH 1332 0
DWIDTH 16 0
BBX 16 28 0 -8
BITMAP
0000
0000
0000
0000
0000
0000
FFFC
FFFC
3C0C
3C0C
3C00
3C00
3C00
3C00
3C00
3C00
3C00
3C00
3C00
3C00
3C00
3C00
FF00
FF00
0000
0000
0000
0000
ENDCHAR
STARTCHAR u00AC
ENCODING 172
SWIDTH 1332 0
DWIDTH 16 0
BBX 16 28 0 -8
BITMAP
0000
0000
0000
0000
0000
0000
0000
0000
0000
0000
0000
0000
0000
0000
FFFF
FFFF
000F
000F
000F
000F
0000
0000
0000
0000
0000
0000
0000
0000
ENDCHAR
STARTCHAR u2642
ENCODING 9794
SWIDTH 1332 0
DWIDTH 16 0
BBX 16 28 0 -8
BITMAP
0000
0000
0000
0000
03FC
03FC
00FC
00FC
03CC
03CC
0F0C
0F0C
3FC0
3FC0
F0F0
F0F0
F0F0
F0F0
F0F0
F0F0
F0F0
F0F0
3FC0
3FC0
0000
0000
0000
0000
ENDCHAR
STARTCHAR u0031
ENCODING 49
SWIDTH 1332 0
DWIDTH 16 0
BBX 16 28 0 -8
BITMAP
0000
0000
0000
0000
0000
0000
03C0
03C0
0FC0
0FC0
3FC0
3FC0
03C0
03C0
03C0
03C0
03C0
03C0
03C0
03C0
03C0
03C0
3FFC
3FFC
0000
0000
0000
0000
ENDCHAR
STARTCHAR u00B2
ENCODING 178
SWIDTH 1332 0
DWIDTH 16 0
BBX 16 28 0 -8
BITMAP
0000
0000
0FF0
0FF0
3C3C
3C3C
00F0
00F0
03C0
03C0
0F0C
0F0C
3FFC
3FFC
0000
0000
0000
0000
0000
0000
0000
0000
0000
0000
0000
0000
0000
0000
ENDCHAR
STARTCHAR u00BB
ENCODING 187
SWIDTH 1332 0
DWIDTH 16 0
BBX 16 28 0 -8
BITMAP
0000
0000
0000
0000
0000
0000
0000
0000
F3C0
F3C0
3CF0
3CF0
0F3C
0F3C
3CF0
3CF0
F3C0
F3C0
0000
0000
0000
0000
0000
0000
0000
0000
0000
0000
ENDCHAR
STARTCHAR u007C
ENCODING 124
SWIDTH 1332 0
DWIDTH 16 0
BBX 16 28 0 -8
BITMAP
0000
0000
0000
0000
0000
0000
03C0
03C0
03C0
03C0
03C0
03C0
03C0
03C0
03C0
03C0
03C0
03C0
03C0
03C0
03C0
03C0
03C0
03C0
0000
0000
0000
0000
ENDCHAR
STARTCHAR u0068
ENCODING 104
SWIDTH 1332 0
DWIDTH 16 0
BBX 16 28 0 -8
BITMAP
0000
0000
0000
0000
0000
0000
FC00
FC00
3C00
3C00
3C00
3C00
3CF0
3CF0
3F3C
3F3C
3C3C
3C3C
3C3C
3C3C
3C3C
3C3C
FC3C
FC3C
0000
0000
0000
0000
ENDCHAR
STARTCHAR u2192
ENCODING 8594
SWIDTH 1332 0
DWIDTH 16 0
BBX 16 28 0 -8
BITMAP
0000
0000
0000
0000
0000
0000
0000
0000
0000
0000
03C0
03C0
00F0
00F0
FFFC
FFFC
00F0
00F0
03C0
03C0
0000
0000
0000
0000
0000
0000
0000
0000
ENDCHAR
STARTCHAR u03BA
ENCODING 954
SWIDTH 1332 0
DWIDTH 16 0
BBX 16 28 0 -8
BITMAP
0000
0000
0000
0000
0000
0000
0000
0000
0000
0000
0000
0000
FC3C
FC3C
3CF0
3CF0
3FC0
3FC0
3CF0
3CF0
3C3C
3C3C
FC3C
FC3C
0000
0000
0000
0000
ENDCHAR
STARTCHAR u03CE
ENCODING 974
SWIDTH 1332 0
DWIDTH 16 0
BBX 16 28 0 -8
BITMAP
0000
0000
0000
0000
0000
0000
0FC0
0FC0
0300
0300
0000
0000
3C3C
3C3C
F00F
F00F
F00F
F00F
F3CF
F3CF
FFFF
FFFF
3C3C
3C3C
0000
0000
0000
0000
ENDCHAR
STARTCHAR u0079
ENCODING 121
SWIDTH 1332 0
DWIDTH 16 0
BBX 16 28 0 -8
BITMAP
0000
0000
0000
0000
0000
0000
0000
0000
0000
0000
F03C
F03C
F03C
F03C
F03C
F03C
F03C
F03C
F03C
F03C
3FFC
3FFC
003C
003C
00F0
00F0
FFC0
FFC0
ENDCHAR
STARTCHAR u004F
ENCODING 79
SWIDTH 1332 0
DWIDTH 16 0
BBX 16 28 0 -8
BITMAP
0000
0000
0000
0000
0000
0000
3FF0
3FF0
F03C
F03C
F03C
F03C
F03C
F03C
F03C
F03C
F03C
F03C
F03C
F03C
F03C
F03C
3FF0
3FF0
0000
0000
0000
0000
ENDCHAR
STARTCHAR u263A
ENCODING 9786
SWIDTH 1332 0
DWIDTH 16 0
BBX 16 28 0 -8
BITMAP
0000
0000
0000
0000
3FFC
3FFC
C003
C003
CC33
CC33
C003
C003
C003
C003
CFF3
CFF3
C3C3
C3C3
C003
C003
C003
C003
3FFC
3FFC
0000
0000
0000
0000
ENDCHAR
STARTCHAR u03CB
ENCODING 971
SWIDTH 1332 0
DWIDTH 16 0
BBX 16 28 0 -8
BITMAP
0000
0000
0000
0000
0000
0000
F00F
F00F
0000
0000
0000
0000
FC3F
FC3F
3C3C
3C3C
3C3C
3C3C
3C3C
3C3C
3C3C
3C3C
0FF0
0FF0
0000
0000
0000
0000
ENDCHAR
STARTCHAR u03B8
ENCODING 952
SWIDTH 1332 0
DWIDTH 16 0
BBX 16 28 0 -8
BITMAP
0000
0000
0000
0000
0000
0000
0FFC
0FFC
3C0F
3C0F
3C0F
3C0F
3C0F
3C0F
3FFF
3FFF
3C0F
3C0F
3C0F
3C0F
3C0F
3C0F
0FFC
0FFC
0000
0000
0000
0000
ENDCHAR
STARTCHAR u0060
ENCODING 96
SWIDTH 1332 0
DWIDTH 16 0
BBX 16 28 0 -8
BITMAP
3C00
3C00
0F00
0F00
03C0
03C0
0000
0000
0000
0000
0000
0000
0000
0000
0000
0000
0000
0000
0000
0000
0000
0000
0000
0000
0000
0000
0000
0000
ENDCHAR
STARTCHAR u25B2
ENCODING 9650
SWIDTH 1332 0
DWIDTH 16 0
BBX 16 28 0 -8
BITMAP
0000
0000
0000
0000
0000
0000
0000
0000
0300
0300
0FC0
0FC0
0FC0
0FC0
3FF0
3FF0
3FF0
3FF0
FFFC
FFFC
FFFC
FFFC
0000
0000
0000
0000
0000
0000
ENDCHAR
STARTCHAR u007E
ENCODING 126
SWIDTH 1332 0
DWIDTH 16 0
BBX 16 28 0 -8
BITMAP
0000
0000
3F3C
3F3C
F3F0
F3F0
0000
0000
0000
0000
0000
0000
0000
0000
0000
0000
0000
0000
0000
0000
0000
0000
0000
0000
0000
0000
0000
0000
ENDCHAR
STARTCHAR u03B6
ENCODING 950
SWIDTH 1332 0
DWIDTH 16 0
BBX 16 28 0 -8
BITMAP
0000
0000
FFF0
FFF0
00F0
00F0
03C0
03C0
0F00
0F00
3C00
3C00
F000
F000
F000
F000
F000
F000
F000
F000
3FC0
3FC0
00F0
00F0
00F0
00F0
3FC0
3FC0
ENDCHAR
STARTCHAR u2640
ENCODING 9792
SWIDTH 1332 0
DWIDTH 16 0
BBX 16 28 0 -8
BITMAP
0000
0000
0000
0000
0FF0
0FF0
3C3C
3C3C
3C3C
3C3C
3C3C
3C3C
3C3C
3C3C
0FF0
0FF0
03C0
03C0
3FFC
3FFC
03C0
03C0
03C0
03C0
0000
0000
0000
0000
ENDCHAR
STARTCHAR u00A0
ENCODING 160
SWIDTH 1332 0
DWIDTH 16 0
BBX 16 28 0 -8
BITMAP
0000
0000
0000
0000
0000
0000
0000
0000
0000
0000
0000
0000
0000
0000
0000
0000
0000
0000
0000
0000
0000
0000
0000
0000
0000
0000
0000
0000
ENDCHAR
STARTCHAR u03C1
ENCODING 961
SWIDTH 1332 0
DWIDTH 16 0
BBX 16 28 0 -8
BITMAP
0000
0000
0000
0000
0000
0000
0000
0000
0000
0000
0000
0000
0FF0
0FF0
3C3C
3C3C
3C3C
3C3C
3C3C
3C3C
3C3C
3C3C
3FF0
3FF0
3C00
3C00
3C00
3C00
ENDCHAR
STARTCHAR u00B0
ENCODING 176
SWIDTH 1332 0
DWIDTH 16 0
BBX 16 28 0 -8
BITMAP
0000
0000
0FC0
0FC0
3CF0
3CF0
3CF0
3CF0
0FC0
0FC0
0000
0000
0000
0000
0000
0000
0000
0000
0000
0000
0000
0000
0000
0000
0000
0000
0000
0000
ENDCHAR
STARTCHAR u25D8
ENCODING 9688
SWIDTH 1332 0
DWIDTH 16 0
BBX 16 28 0 -8
BITMAP
FFFF
FFFF
FFFF
FFFF
FFFF
FFFF
FFFF
FFFF
FFFF
FFFF
FC3F
FC3F
F00F
F00F
F00F
F00F
FC3F
FC3F
FFFF
FFFF
FFFF
FFFF
FFFF
FFFF
FFFF
FFFF
FFFF
FFFF
ENDCHAR
STARTCHAR u002F
ENCODING 47
SWIDTH 1332 0
DWIDTH 16 0
BBX 16 28 0 -8
BITMAP
0000
0000
0000
0000
0000
0000
0000
0000
000C
000C
003C
003C
00F0
00F0
03C0
03C0
0F00
0F00
3C00
3C00
F000
F000
C000
C000
0000
0000
0000
0000
ENDCHAR
STARTCHAR u03BC
ENCODING 956
SWIDTH 1332 0
DWIDTH 16 0
BBX 16 28 0 -8
BITMAP
0000
0000
0000
0000
0000
0000
0000
0000
0000
0000
0000
0000
3C3C
3C3C
3C3C
3C3C
3C3C
3C3C
3C3C
3C3C
3C3C
3C3C
3FFF
3FFF
3C00
3C00
3C00
3C00
ENDCHAR
STARTCHAR u0062
ENCODING 98
SWIDTH 1332 0
DWIDTH 16 0
BBX 16 28 0 -8
BITMAP
0000
0000
0000
0000
0000
0000
FC00
FC00
3C00
3C00
3C00
3C00
3FC0
3FC0
3CF0
3CF0
3C3C
3C3C
3C3C
3C3C
3C3C
3C3C
3FF0
3FF0
0000
0000
0000
0000
ENDCHAR
STARTCHAR u03B3
ENCODING 947
SWIDTH 1332 0
DWIDTH 16 0
BBX 16 28 0 -8
BITMAP
0000
0000
0000
0000
0000
0000
0000
0000
0000
0000
F00F
F00F
3C3C
3C3C
0FF0
0FF0
03C0
03C0
0FF0
0FF0
3C3C
3C3C
300C
300C
3C3C
3C3C
0FF0
0FF0
ENDCHAR
STARTCHAR u25AC
ENCODING 9644
SWIDTH 1332 0
DWIDTH 16 0
BBX 16 28 0 -8
BITMAP
0000
0000
0000
0000
0000
0000
0000
0000
0000
0000
0000
0000
0000
0000
0000
0000
FFFC
FFFC
FFFC
FFFC
FFFC
FFFC
FFFC
FFFC
0000
0000
0000
0000
ENDCHAR
STARTCHAR u0025
ENCODING 37
SWIDTH 1332 0
DWIDTH 16 0
BBX 16 28 0 -8
BITMAP
0000
0000
0000
0000
0000
0000
0000
0000
F00C
F00C
F03C
F03C
03F0
03F0
0FC0
0FC0
3C00
3C00
F03C
F03C
C03C
C03C
0000
0000
0000
0000
0000
0000
ENDCHAR
STARTCHAR u03AC
ENCODING 940
SWIDTH 1332 0
DWIDTH 16 0
BBX 16 28 0 -8
BITMAP
0000
0000
0000
0000
0000
0000
0FC0
0FC0
0300
0300
0000
0000
3FCF
3FCF
F0FC
F0FC
F0F0
F0F0
F0F0
F0F0
F0F0
F0F0
3FCF
3FCF
0000
0000
0000
0000
ENDCHAR
STARTCHAR u0075
ENCODING 117
SWIDTH 1332 0
DWIDTH 16 0
BBX 16 28 0 -8
BITMAP
0000
0000
0000
0000
0000
0000
0000
0000
0000
0000
0000
0000
F0F0
F0F0
F0F0
F0F0
F0F0
F0F0
F0F0
F0F0
F0F0
F0F0
3F3C
3F3C
0000
0000
0000
0000
ENDCHAR
STARTCHAR u002B
ENCODING 43
SWIDTH 1332 0
DWIDTH 16 0
BBX 16 28 0 -8
BITMAP
0000
0000
0000
0000
0000
0000
0000
0000
0000
0000
0000
0000
03C0
03C0
03C0
03C0
3FFC
3FFC
03C0
03C0
03C0
03C0
0000
0000
0000
0000
0000
0000
ENDCHAR
STARTCHAR u2660
ENCODING 9824
SWIDTH 1332 0
DWIDTH 16 0
BBX 16 28 0 -8
BITMAP
0000
0000
0000
0000
0000
0000
03C0
03C0
0FF0
0FF0
3FFC
3FFC
FFFF
FFFF
FFFF
FFFF
3FFC
3FFC
03C0
03C0
03C0
03C0
0FF0
0FF0
0000
0000
0000
0000
ENDCHAR
STARTCHAR u0021
ENCODING 33
SWIDTH 1332 0
DWIDTH 16 0
BBX 16 28 0 -8
BITMAP
0000
0000
0000
0000
0000
0000
03C0
03C0
0FF0
0FF0
0FF0
0FF0
0FF0
0FF0
03C0
03C0
03C0
03C0
0000
0000
03C0
03C0
03C0
03C0
0000
0000
0000
0000
ENDCHAR
STARTCHAR u0398
ENCODING 920
SWIDTH 1332 0
DWIDTH 16 0
BBX 16 28 0 -8
BITMAP
0000
0000
0000
0000
0000
0000
3FF0
3FF0
F03C
F03C
F03C
F03C
F03C
F03C
FFFC
FFFC
F03C
F03C
F03C
F03C
F03C
F03C
3FF0
3FF0
0000
0000
0000
0000
ENDCHAR
STARTCHAR u25BA
ENCODING 9658
SWIDTH 1332 0
DWIDTH 16 0
BBX 16 28 0 -8
BITMAP
0000
0000
C000
C000
F000
F000
FC00
FC00
FF00
FF00
FFC0
FFC0
FFFC
FFFC
FFC0
FFC0
FF00
FF00
FC00
FC00
F000
F000
C000
C000
0000
0000
0000
0000
ENDCHAR
STARTCHAR u003F
ENCODING 63
SWIDTH 1332 0
DWIDTH 16 0
BBX 16 28 0 -8
BITMAP
0000
0000
0000
0000
0000
0000
3FF0
3FF0
F03C
F03C
F03C
F03C
00F0
00F0
03C0
03C0
03C0
03C0
0000
0000
03C0
03C0
03C0
03C0
0000
0000
0000
0000
ENDCHAR
STARTCHAR u263B
ENCODING 9787
SWIDTH 1332 0
DWIDTH 16 0
BBX 16 28 0 -8
BITMAP
0000
0000
0000
0000
3FFC
3FFC
FFFF
FFFF
F3CF
F3CF
FFFF
FFFF
FFFF
FFFF
F00F
F00F
FC3F
FC3F
FFFF
FFFF
FFFF
FFFF
3FFC
3FFC
0000
0000
0000
0000
ENDCHAR
STARTCHAR u221F
ENCODING 8735
SWIDTH 1332 0
DWIDTH 16 0
BBX 16 28 0 -8
BITMAP
0000
0000
0000
0000
0000
0000
0000
0000
0000
0000
0000
0000
F000
F000
F000
F000
F000
F000
FFFC
FFFC
0000
0000
0000
0000
0000
0000
0000
0000
ENDCHAR
STARTCHAR u25D9
ENCODING 9689
SWIDTH 1332 0
DWIDTH 16 0
BBX 16 28 0 -8
BITMAP
FFFF
FFFF
FFFF
FFFF
FFFF
FFFF
FFFF
FFFF
F00F
F00F
C3C3
C3C3
CFF3
CFF3
CFF3
CFF3
C3C3
C3C3
F00F
F00F
FFFF
FFFF
FFFF
FFFF
FFFF
FFFF
FFFF
FFFF
ENDCHAR
STARTCHAR u0050
ENCODING 80
SWIDTH 1332 0
DWIDTH 16 0
BBX 16 28 0 -8
BITMAP
0000
0000
0000
0000
0000
0000
FFF0
FFF0
3C3C
3C3C
3C3C
3C3C
3C3C
3C3C
3FF0
3FF0
3C00
3C00
3C00
3C00
3C00
3C00
FF00
FF00
0000
0000
0000
0000
ENDCHAR
STARTCHAR u03AF
ENCODING 943
SWIDTH 1332 0
DWIDTH 16 0
BBX 16 28 0 -8
BITMAP
0000
0000
0000
0000
0000
0000
0FC0
0FC0
0300
0300
0000
0000
03C0
03C0
03C0
03C0
03C0
03C0
03C0
03C0
03C0
03C0
00FC
00FC
0000
0000
0000
0000
ENDCHAR
STARTCHAR u0077
ENCODING 119
SWIDTH 1332 0
DWIDTH 16 0
BBX 16 28 0 -8
BITMAP
0000
0000
0000
0000
0000
0000
0000
0000
0000
0000
0000
0000
F03C
F03C
F03C
F03C
F33C
F33C
F33C
F33C
FFFC
FFFC
3CF0
3CF0
0000
0000
0000
0000
ENDCHAR
STARTCHAR u0063
ENCODING 99
SWIDTH 1332 0
DWIDTH 16 0
BBX 16 28 0 -8
BITMAP
0000
0000
0000
0000
0000
0000
0000
0000
0000
0000
0000
0000
3FF0
3FF0
F03C
F03C
F000
F000
F000
F000
F03C
F03C
3FF0
3FF0
0000
0000
0000
0000
ENDCHAR
STARTCHAR u00B3
ENCODING 179
SWIDTH 1332 0
DWIDTH 16 0
BBX 16 28 0 -8
BITMAP
0FF0
0FF0
3C3C
3C3C
003C
003C
03FC
03FC
003C
003C
3C3C
3C3C
0FF0
0FF0
0000
0000
0000
0000
0000
0000
0000
0000
0000
0000
0000
0000
0000
0000
ENDCHAR
STARTCHAR u0048
ENCODING 72
SWIDTH 1332 0
DWIDTH 16 0
BBX 16 28 0 -8
BITMAP
0000
0000
0000
0000
0000
0000
F03C
F03C
F03C
F03C
F03C
F03C
F03C
F03C
FFFC
FFFC
F03C
F03C
F03C
F03C
F03C
F03C
F03C
F03C
0000
0000
0000
0000
ENDCHAR
STARTCHAR u2022
ENCODING 8226
SWIDTH 1332 0
DWIDTH 16 0
BBX 16 28 0 -8
BITMAP
0000
0000
0000
0000
0000
0000
0000
0000
0000
0000
03C0
03C0
0FF0
0FF0
0FF0
0FF0
03C0
03C0
0000
0000
0000
0000
0000
0000
0000
0000
0000
0000
ENDCHAR
STARTCHAR u25C0
ENCODING 9664
SWIDTH 1332 0
DWIDTH 16 0
BBX 16 28 0 -8
BITMAP
0000
0000
000C
000C
003C
003C
00FC
00FC
03FC
03FC
0FFC
0FFC
FFFC
FFFC
0FFC
0FFC
03FC
03FC
00FC
00FC
003C
003C
000C
000C
0000
0000
0000
0000
ENDCHAR
STARTCHAR u03C3
ENCODING 963
SWIDTH 1332 0
DWIDTH 16 0
BBX 16 28 0 -8
BITMAP
0000
0000
0000
0000
0000
0000
0000
0000
0000
0000
0000
0000
3FFF
3FFF
F0F0
F0F0
F0F0
F0F0
F0F0
F0F0
F0F0
F0F0
3FC0
3FC0
0000
0000
0000
0000
ENDCHAR
STARTCHAR u004A
ENCODING 74
SWIDTH 1332 0
DWIDTH 16 0
BBX 16 28 0 -8
BITMAP
0000
0000
0000
0000
0000
0000
03FC
03FC
00F0
00F0
00F0
00F0
00F0
00F0
00F0
00F0
F0F0
F0F0
F0F0
F0F0
F0F0
F0F0
3FC0
3FC0
0000
0000
0000
0000
ENDCHAR
STARTCHAR u0396
ENCODING 918
SWIDTH 1332 0
DWIDTH 16 0
BBX 16 28 0 -8
BITMAP
0000
0000
0000
0000
0000
0000
FFFC
FFFC
F03C
F03C
C03C
C03C
00F0
00F0
03C0
03C0
0F00
0F00
3C0C
3C0C
F03C
F03C
FFFC
FFFC
0000
0000
0000
0000
ENDCHAR
STARTCHAR u00B6
ENCODING 182
SWIDTH 1332 0
DWIDTH 16 0
BBX 16 28 0 -8
BITMAP
0000
0000
0000
0000
0000
0000
3FFF
3FFF
F3CF
F3CF
F3CF
F3CF
F3CF
F3CF
3FCF
3FCF
03CF
03CF
03CF
03CF
03CF
03CF
03CF
03CF
0000
0000
0000
0000
ENDCHAR
STARTCHAR u003D
ENCODING 61
SWIDTH 1332 0
DWIDTH 16 0
BBX 16 28 0 -8
BITMAP
0000
0000
0000
0000
0000
0000
0000
0000
0000
0000
0000
0000
3FFC
3FFC
0000
0000
0000
0000
3FFC
3FFC
0000
0000
0000
0000
0000
0000
0000
0000
ENDCHAR
STARTCHAR u006C
ENCODING 108
SWIDTH 1332 0
DWIDTH 16 0
BBX 16 28 0 -8
BITMAP
0000
0000
0000
0000
0000
0000
0FC0
0FC0
03C0
03C0
03C0
03C0
03C0
03C0
03C0
03C0
03C0
03C0
03C0
03C0
03C0
03C0
0FF0
0FF0
0000
0000
0000
0000
ENDCHAR
STARTCHAR u03F4
ENCODING 1012
SWIDTH 1332 0
DWIDTH 16 0
BBX 16 28 0 -8
BITMAP
003C
003C
00F0
00F0
03C0
03C0
F00F
F00F
0000
0000
0000
0000
0000
0000
0000
0000
0000
0000
0000
0000
0000
0000
0000
0000
0000
0000
0000
0000
ENDCHAR
STARTCHAR u0073
ENCODING 115
SWIDTH 1332 0
DWIDTH 16 0
BBX 16 28 0 -8
BITMAP
0000
0000
0000
0000
0000
0000
0000
0000
0000
0000
0000
0000
3FF0
3FF0
F03C
F03C
3F00
3F00
03F0
03F0
F03C
F03C
3FF0
3FF0
0000
0000
0000
0000
ENDCHAR
STARTCHAR u005C
ENCODING 92
SWIDTH 1332 0
DWIDTH 16 0
BBX 16 28 0 -8
BITMAP
0000
0000
0000
0000
0000
0000
C000
C000
F000
F000
FC00
FC00
3F00
3F00
0FC0
0FC0
03F0
03F0
00FC
00FC
003C
003C
000C
000C
0000
0000
0000
0000
ENDCHAR
STARTCHAR u0067
ENCODING 103
SWIDTH 1332 0
DWIDTH 16 0
BBX 16 28 0 -8
BITMAP
0000
0000
0000
0000
0000
0000
0000
0000
0000
0000
3F3C
3F3C
F0F0
F0F0
F0F0
F0F0
F0F0
F0F0
F0F0
F0F0
3FF0
3FF0
00F0
00F0
F0F0
F0F0
3FC0
3FC0
ENDCHAR
STARTCHAR u039A
ENCODING 922
SWIDTH 1332 0
DWIDTH 16 0
BBX 16 28 0 -8
BITMAP
0000
0000
0000
0000
0000
0000
FC3C
FC3C
3C3C
3C3C
3C3C
3C3C
3CF0
3CF0
3FC0
3FC0
3CF0
3CF0
3C3C
3C3C
3C3C
3C3C
FC3C
FC3C
0000
0000
0000
0000
ENDCHAR
STARTCHAR u03AA
ENCODING 938
SWIDTH 1332 0
DWIDTH 16 0
BBX 16 28 0 -8
BITMAP
0000
0000
0000
0000
F00F
F00F
03C0
03C0
03C0
03C0
03C0
03C0
03C0
03C0
03C0
03C0
03C0
03C0
03C0
03C0
03C0
03C0
03C0
03C0
0000
0000
0000
0000
ENDCHAR
STARTCHAR u0071
ENCODING 113
SWIDTH 1332 0
DWIDTH 16 0
BBX 16 28 0 -8
BITMAP
0000
0000
0000
0000
0000
0000
0000
0000
0000
0000
3F3C
3F3C
F0F0
F0F0
F0F0
F0F0
F0F0
F0F0
F0F0
F0F0
3FF0
3FF0
00F0
00F0
00F0
00F0
00F0
00F0
ENDCHAR
STARTCHAR u00BD
ENCODING 189
SWIDTH 1332 0
DWIDTH 16 0
BBX 16 28 0 -8
BITMAP
0000
0000
3C00
3C00
FC00
FC00
3C0C
3C0C
3C3C
3C3C
3CF0
3CF0
03C0
03C0
0F00
0F00
3C00
3C00
F3F0
F3F0
C03C
C03C
00F0
00F0
03C0
03C0
0FFC
0FFC
ENDCHAR
STARTCHAR u0386
ENCODING 902
SWIDTH 1332 0
DWIDTH 16 0
BBX 16 28 0 -8
BITMAP
0000
0000
0000
0000
F000
F000
C300
C300
CFC0
CFC0
3CF0
3CF0
F03C
F03C
F03C
F03C
FFFC
FFFC
F03C
F03C
F03C
F03C
F03C
F03C
0000
0000
0000
0000
ENDCHAR
STARTCHAR u03A8
ENCODING 936
SWIDTH 1332 0
DWIDTH 16 0
BBX 16 28 0 -8
BITMAP
0000
0000
0000
0000
0000
0000
03C0
03C0
F3CF
F3CF
F3CF
F3CF
F3CF
F3CF
F3CF
F3CF
3FFC
3FFC
03C0
03C0
03C0
03C0
0FF0
0FF0
0000
0000
0000
0000
ENDCHAR
STARTCHAR u005B
ENCODING 91
SWIDTH 1332 0
DWIDTH 16 0
BBX 16 28 0 -8
BITMAP
0000
0000
0000
0000
0000
0000
0FF0
0FF0
0F00
0F00
0F00
0F00
0F00
0F00
0F00
0F00
0F00
0F00
0F00
0F00
0F00
0F00
0FF0
0FF0
0000
0000
0000
0000
ENDCHAR
STARTCHAR u00A7
ENCODING 167
SWIDTH 1332 0
DWIDTH 16 0
BBX 16 28 0 -8
BITMAP
0000
0000
0000
0000
3FF0
3FF0
F03C
F03C
3C00
3C00
0FC0
0FC0
3CF0
3CF0
F03C
F03C
3CF0
3CF0
0FC0
0FC0
00F0
00F0
F03C
F03C
3FF0
3FF0
0000
0000
ENDCHAR
STARTCHAR u0030
ENCODING 48
SWIDTH 1332 0
DWIDTH 16 0
BBX 16 28 0 -8
BITMAP
0000
0000
0000
0000
0000
0000
0FC0
0FC0
3CF0
3CF0
F03C
F03C
F03C
F03C
F33C
F33C
F03C
F03C
F03C
F03C
3CF0
3CF0
0FC0
0FC0
0000
0000
0000
0000
ENDCHAR
STARTCHAR u006B
ENCODING 107
SWIDTH 1332 0
DWIDTH 16 0
BBX 16 28 0 -8
BITMAP
0000
0000
0000
0000
0000
0000
FC00
FC00
3C00
3C00
3C00
3C00
3C3C
3C3C
3CF0
3CF0
3FC0
3FC0
3CF0
3CF0
3C3C
3C3C
FC3C
FC3C
0000
0000
0000
0000
ENDCHAR
STARTCHAR u0057
ENCODING 87
SWIDTH 1332 0
DWIDTH 16 0
BBX 16 28 0 -8
BITMAP
0000
0000
0000
0000
0000
0000
F03C
F03C
F03C
F03C
F03C
F03C
F33C
F33C
F33C
F33C
F33C
F33C
FFFC
FFFC
FCFC
FCFC
3CF0
3CF0
0000
0000
0000
0000
ENDCHAR
STARTCHAR u03A1
ENCODING 929
SWIDTH 1332 0
DWIDTH 16 0
BBX 16 28 0 -8
BITMAP
0000
0000
0000
0000
0000
0000
FFF0
FFF0
3C3C
3C3C
3C3C
3C3C
3C3C
3C3C
3FF0
3FF0
3C00
3C00
3C00
3C00
3C00
3C00
FF00
FF00
0000
0000
0000
0000
ENDCHAR
STARTCHAR u004D
ENCODING 77
SWIDTH 1332 0
DWIDTH 16 0
BBX 16 28 0 -8
BITMAP
0000
0000
0000
0000
0000
0000
F03C
F03C
FCFC
FCFC
FFFC
FFFC
FFFC
FFFC
F33C
F33C
F03C
F03C
F03C
F03C
F03C
F03C
F03C
F03C
0000
0000
0000
0000
ENDCHAR
STARTCHAR u03BE
ENCODING 958
SWIDTH 1332 0
DWIDTH 16 0
BBX 16 28 0 -8
BITMAP
0000
0000
FFF0
FFF0
3C00
3C00
F000
F000
3FC0
3FC0
0F00
0F00
3C00
3C00
F000
F000
F000
F000
F000
F000
3FF0
3FF0
003C
003C
003C
003C
3FF0
3FF0
ENDCHAR
STARTCHAR u03A3
ENCODING 931
SWIDTH 1332 0
DWIDTH 16 0
BBX 16 28 0 -8
BITMAP
0000
0000
0000
0000
0000
0000
FFFC
FFFC
F000
F000
3C00
3C00
0F00
0F00
03C0
03C0
0F00
0F00
3C00
3C00
F000
F000
FFFC
FFFC
0000
0000
0000
0000
ENDCHAR
STARTCHAR uFFFD
ENCODING 65533
SWIDTH 1332 0
DWIDTH 16 0
BBX 16 28 0 -8
BITMAP
0000
0000
0000
0000
0000
0000
0000
0000
0000
0000
0000
0000
0000
0000
0000
0000
0000
0000
0000
0000
0000
0000
0000
0000
0000
0000
0000
0000
ENDCHAR
STARTCHAR u03B9
ENCODING 953
SWIDTH 1332 0
DWIDTH 16 0
BBX 16 28 0 -8
BITMAP
0000
0000
0000
0000
0000
0000
0000
0000
0000
0000
0000
0000
03C0
03C0
03C0
03C0
03C0
03C0
03C0
03C0
03C0
03C0
00FC
00FC
0000
0000
0000
0000
ENDCHAR
STARTCHAR u007B
ENCODING 123
SWIDTH 1332 0
DWIDTH 16 0
BBX 16 28 0 -8
BITMAP
0000
0000
0000
0000
0000
0000
00FC
00FC
03C0
03C0
03C0
03C0
03C0
03C0
3F00
3F00
03C0
03C0
03C0
03C0
03C0
03C0
00FC
00FC
0000
0000
0000
0000
ENDCHAR
STARTCHAR u0389
ENCODING 905
SWIDTH 1332 0
DWIDTH 16 0
BBX 16 28 0 -8
BITMAP
0000
0000
0000
0000
0000
0000
CF0F
CF0F
CF0F
CF0F
0F0F
0F0F
0F0F
0F0F
0FFF
0FFF
0F0F
0F0F
0F0F
0F0F
0F0F
0F0F
0F0F
0F0F
0000
0000
0000
0000
ENDCHAR
STARTCHAR u0032
ENCODING 50
SWIDTH 1332 0
DWIDTH 16 0
BBX 16 28 0 -8
BITMAP
0000
0000
0000
0000
0000
0000
3FF0
3FF0
F03C
F03C
003C
003C
00F0
00F0
03C0
03C0
0F00
0F00
3C00
3C00
F03C
F03C
FFFC
FFFC
0000
0000
0000
0000
ENDCHAR
STARTCHAR u0027
ENCODING 39
SWIDTH 1332 0
DWIDTH 16 0
BBX 16 28 0 -8
BITMAP
0000
0000
0000
0000
0F00
0F00
0F00
0F00
0F00
0F00
3C00
3C00
0000
0000
0000
0000
0000
0000
0000
0000
0000
0000
0000
0000
0000
0000
0000
0000
ENDCHAR
STARTCHAR u0040
ENCODING 64
SWIDTH 1332 0
DWIDTH 16 0
BBX 16 28 0 -8
BITMAP
0000
0000
0000
0000
0000
0000
3FF0
3FF0
F03C
F03C
F03C
F03C
F03C
F03C
F3FC
F3FC
F3FC
F3FC
F3F0
F3F0
F000
F000
3FF0
3FF0
0000
0000
0000
0000
ENDCHAR
STARTCHAR u0061
ENCODING 97
SWIDTH 1332 0
DWIDTH 16 0
BBX 16 28 0 -8
BITMAP
0000
0000
0000
0000
0000
0000
0000
0000
0000
0000
0000
0000
3FC0
3FC0
00F0
00F0
3FF0
3FF0
F0F0
F0F0
F0F0
F0F0
3F3C
3F3C
0000
0000
0000
0000
ENDCHAR
STARTCHAR u03C9
ENCODING 969
SWIDTH 1332 0
DWIDTH 16 0
BBX 16 28 0 -8
BITMAP
0000
0000
0000
0000
0000
0000
0000
0000
0000
0000
0000
0000
3C3C
3C3C
F00F
F00F
F00F
F00F
F3CF
F3CF
FFFF
FFFF
3C3C
3C3C
0000
0000
0000
0000
ENDCHAR
STARTCHAR u2302
ENCODING 8962
SWIDTH 1332 0
DWIDTH 16 0
BBX 16 28 0 -8
BITMAP
0000
0000
0000
0000
0000
0000
0000
0000
0300
0300
0FC0
0FC0
3CF0
3CF0
F03C
F03C
F03C
F03C
F03C
F03C
FFFC
FFFC
0000
0000
0000
0000
0000
0000
ENDCHAR
STARTCHAR u0029
ENCODING 41
SWIDTH 1332 0
DWIDTH 16 0
BBX 16 28 0 -8
BITMAP
0000
0000
0000
0000
0000
0000
0F00
0F00
03C0
03C0
00F0
00F0
00F0
00F0
00F0
00F0
00F0
00F0
00F0
00F0
03C0
03C0
0F00
0F00
0000
0000
0000
0000
ENDCHAR
STARTCHAR u0371
ENCODING 881
SWIDTH 1332 0
DWIDTH 16 0
BBX 16 28 0 -8
BITMAP
0000
0000
0F00
0F00
3C00
3C00
3C00
3C00
0F00
0F00
0000
0000
0000
0000
0000
0000
0000
0000
0000
0000
0000
0000
0000
0000
0000
0000
0000
0000
ENDCHAR
STARTCHAR u0034
ENCODING 52
SWIDTH 1332 0
DWIDTH 16 0
BBX 16 28 0 -8
BITMAP
0000
0000
0000
0000
0000
0000
00F0
00F0
03F0
03F0
0FF0
0FF0
3CF0
3CF0
F0F0
F0F0
FFFC
FFFC
00F0
00F0
00F0
00F0
03FC
03FC
0000
0000
0000
0000
ENDCHAR
STARTCHAR u03B5
ENCODING 949
SWIDTH 1332 0
DWIDTH 16 0
BBX 16 28 0 -8
BITMAP
0000
0000
0000
0000
0000
0000
0000
0000
0000
0000
3FF0
3FF0
F03C
F03C
F000
F000
3FC0
3FC0
F000
F000
F03C
F03C
3FF0
3FF0
0000
0000
0000
0000
ENDCHAR
STARTCHAR u00AD
ENCODING 173
SWIDTH 1332 0
DWIDTH 16 0
BBX 16 28 0 -8
BITMAP
0000
0000
0000
0000
0000
0000
0000
0000
0000
0000
0000
0000
0000
0000
3FFC
3FFC
0000
0000
0000
0000
0000
0000
0000
0000
0000
0000
0000
0000
ENDCHAR
STARTCHAR u0038
ENCODING 56
SWIDTH 1332 0
DWIDTH 16 0
BBX 16 28 0 -8
BITMAP
0000
0000
0000
0000
0000
0000
3FF0
3FF0
F03C
F03C
F03C
F03C
F03C
F03C
3FF0
3FF0
F03C
F03C
F03C
F03C
F03C
F03C
3FF0
3FF0
0000
0000
0000
0000
ENDCHAR
STARTCHAR u002D
ENCODING 45
SWIDTH 1332 0
DWIDTH 16 0
BBX 16 28 0 -8
BITMAP
0000
0000
0000
0000
0000
0000
0000
0000
0000
0000
0000
0000
0000
0000
0000
0000
FFFC
FFFC
0000
0000
0000
0000
0000
0000
0000
0000
0000
0000
ENDCHAR
STARTCHAR u0042
ENCODING 66
SWIDTH 1332 0
DWIDTH 16 0
BBX 16 28 0 -8
BITMAP
0000
0000
0000
0000
0000
0000
FFF0
FFF0
3C3C
3C3C
3C3C
3C3C
3C3C
3C3C
3FF0
3FF0
3C3C
3C3C
3C3C
3C3C
3C3C
3C3C
FFF0
FFF0
0000
0000
0000
0000
ENDCHAR
STARTCHAR u0036
ENCODING 54
SWIDTH 1332 0
DWIDTH 16 0
BBX 16 28 0 -8
BITMAP
0000
0000
0000
0000
0000
0000
0FC0
0FC0
3C00
3C00
F000
F000
F000
F000
FFF0
FFF0
F03C
F03C
F03C
F03C
F03C
F03C
3FF0
3FF0
0000
0000
0000
0000
ENDCHAR
STARTCHAR u038E
ENCODING 910
SWIDTH 1332 0
DWIDTH 16 0
BBX 16 28 0 -8
BITMAP
0000
0000
0000
0000
0000
0000
CF0F
CF0F
CF0F
CF0F
0F0F
0F0F
0F0F
0F0F
03FC
03FC
00F0
00F0
00F0
00F0
00F0
00F0
03FC
03FC
0000
0000
0000
0000
ENDCHAR
STARTCHAR u2191
ENCODING 8593
SWIDTH 1332 0
DWIDTH 16 0
BBX 16 28 0 -8
BITMAP
0000
0000
0000
0000
03C0
03C0
0FF0
0FF0
3FFC
3FFC
03C0
03C0
03C0
03C0
03C0
03C0
03C0
03C0
03C0
03C0
03C0
03C0
03C0
03C0
0000
0000
0000
0000
ENDCHAR
STARTCHAR u0046
ENCODING 70
SWIDTH 1332 0
DWIDTH 16 0
BBX 16 28 0 -8
BITMAP
0000
0000
0000
0000
0000
0000
FFFC
FFFC
3C3C
3C3C
3C0C
3C0C
3CC0
3CC0
3FC0
3FC0
3CC0
3CC0
3C00
3C00
3C00
3C00
FF00
FF00
0000
0000
0000
0000
ENDCHAR
STARTCHAR u03C7
ENCODING 967
SWIDTH 1332 0
DWIDTH 16 0
BBX 16 28 0 -8
BITMAP
0000
0000
0000
0000
0000
0000
0000
0000
0000
0000
0000
0000
F03C
F03C
3CF0
3CF0
0FC0
0FC0
0FC0
0FC0
3CF0
3CF0
F03C
F03C
0000
0000
0000
0000
ENDCHAR
STARTCHAR u0044
ENCODING 68
SWIDTH 1332 0
DWIDTH 16 0
BBX 16 28 0 -8
BITMAP
0000
0000
0000
0000
0000
0000
FFC0
FFC0
3CF0
3CF0
3C3C
3C3C
3C3C
3C3C
3C3C
3C3C
3C3C
3C3C
3C3C
3C3C
3CF0
3CF0
FFC0
FFC0
0000
0000
0000
0000
ENDCHAR
STARTCHAR u00A6
ENCODING 166
SWIDTH 1332 0
DWIDTH 16 0
BBX 16 28 0 -8
BITMAP
0000
0000
0000
0000
0000
0000
03C0
03C0
03C0
03C0
03C0
03C0
03C0
03C0
03C0
03C0
0000
0000
03C0
03C0
03C0
03C0
03C0
03C0
03C0
03C0
03C0
03C0
ENDCHAR
STARTCHAR u266B
ENCODING 9835
SWIDTH 1332 0
DWIDTH 16 0
BBX 16 28 0 -8
BITMAP
0000
0000
0000
0000
3FFF
3FFF
3C0F
3C0F
3FFF
3FFF
3C0F
3C0F
3C0F
3C0F
3C0F
3C0F
3C0F
3C0F
3C3F
3C3F
FC3F
FC3F
FC3C
FC3C
F000
F000
0000
0000
ENDCHAR
STARTCHAR u0058
ENCODING 88
SWIDTH 1332 0
DWIDTH 16 0
BBX 16 28 0 -8
BITMAP
0000
0000
0000
0000
0000
0000
F03C
F03C
F03C
F03C
3CF0
3CF0
3FF0
3FF0
0FC0
0FC0
3FF0
3FF0
3CF0
3CF0
F03C
F03C
F03C
F03C
0000
0000
0000
0000
ENDCHAR
STARTCHAR u0074
ENCODING 116
SWIDTH 1332 0
DWIDTH 16 0
BBX 16 28 0 -8
BITMAP
0000
0000
0000
0000
0000
0000
0300
0300
0F00
0F00
0F00
0F00
FFF0
FFF0
0F00
0F00
0F00
0F00
0F00
0F00
0F3C
0F3C
03F0
03F0
0000
0000
0000
0000
ENDCHAR
STARTCHAR u21A8
ENCODING 8616
SWIDTH 1332 0
DWIDTH 16 0
BBX 16 28 0 -8
BITMAP
0000
0000
0000
0000
03C0
03C0
0FF0
0FF0
3FFC
3FFC
03C0
03C0
03C0
03C0
03C0
03C0
3FFC
3FFC
0FF0
0FF0
03C0
03C0
3FFC
3FFC
0000
0000
0000
0000
ENDCHAR
STARTCHAR u03B2
ENCODING 946
SWIDTH 1332 0
DWIDTH 16 0
BBX 16 28 0 -8
BITMAP
0000
0000
0000
0000
0000
0000
3FF0
3FF0
F03C
F03C
F03C
F03C
F03C
F03C
FFF0
FFF0
F03C
F03C
F03C
F03C
F03C
F03C
FFF0
FFF0
F000
F000
F000
F000
ENDCHAR
STARTCHAR u0392
ENCODING 914
SWIDTH 1332 0
DWIDTH 16 0
BBX 16 28 0 -8
BITMAP
0000
0000
0000
0000
0000
0000
FFF0
FFF0
3C3C
3C3C
3C3C
3C3C
3C3C
3C3C
3FF0
3FF0
3C3C
3C3C
3C3C
3C3C
3C3C
3C3C
FFF0
FFF0
0000
0000
0000
0000
ENDCHAR
STARTCHAR u0064
ENCODING 100
SWIDTH 1332 0
DWIDTH 16 0
BBX 16 28 0 -8
BITMAP
0000
0000
0000
0000
0000
0000
03F0
03F0
00F0
00F0
00F0
00F0
0FF0
0FF0
3CF0
3CF0
F0F0
F0F0
F0F0
F0F0
F0F0
F0F0
3F3C
3F3C
0000
0000
0000
0000
ENDCHAR
STARTCHAR u03C5
ENCODING 965
SWIDTH 1332 0
DWIDTH 16 0
BBX 16 28 0 -8
BITMAP
0000
0000
0000
0000
0000
0000
0000
0000
0000
0000
0000
0000
FC3F
FC3F
3C3C
3C3C
3C3C
3C3C
3C3C
3C3C
3C3C
3C3C
0FF0
0FF0
0000
0000
0000
0000
ENDCHAR
STARTCHAR u0078
ENCODING 120
SWIDTH 1332 0
DWIDTH 16 0
BBX 16 28 0 -8
BITMAP
0000
0000
0000
0000
0000
0000
0000
0000
0000
0000
0000
0000
F03C
F03C
3CF0
3CF0
0FC0
0FC0
0FC0
0FC0
3CF0
3CF0
F03C
F03C
0000
0000
0000
0000
ENDCHAR
STARTCHAR u0028
ENCODING 40
SWIDTH 1332 0
DWIDTH 16 0
BBX 16 28 0 -8
BITMAP
0000
0000
0000
0000
0000
0000
00F0
00F0
03C0
03C0
0F00
0F00
0F00
0F00
0F00
0F00
0F00
0F00
0F00
0F00
03C0
03C0
00F0
00F0
0000
0000
0000
0000
ENDCHAR
STARTCHAR u004B
ENCODING 75
SWIDTH 1332 0
DWIDTH 16 0
BBX 16 28 0 -8
BITMAP
0000
0000
0000
0000
0000
0000
FC3C
FC3C
3C3C
3C3C
3C3C
3C3C
3CF0
3CF0
3FC0
3FC0
3CF0
3CF0
3C3C
3C3C
3C3C
3C3C
FC3C
FC3C
0000
0000
0000
0000
ENDCHAR
STARTCHAR u0053
ENCODING 83
SWIDTH 1332 0
DWIDTH 16 0
BBX 16 28 0 -8
BITMAP
0000
0000
0000
0000
0000
0000
3FF0
3FF0
F03C
F03C
F03C
F03C
3C00
3C00
0FC0
0FC0
00F0
00F0
F03C
F03C
F03C
F03C
3FF0
3FF0
0000
0000
0000
0000
ENDCHAR
STARTCHAR u2194
ENCODING 8596
SWIDTH 1332 0
DWIDTH 16 0
BBX 16 28 0 -8
BITMAP
0000
0000
0000
0000
0000
0000
0000
0000
0000
0000
0CC0
0CC0
3CF0
3CF0
FFFC
FFFC
3CF0
3CF0
0CC0
0CC0
0000
0000
0000
0000
0000
0000
0000
0000
ENDCHAR
STARTCHAR u03A0
ENCODING 928
SWIDTH 1332 0
DWIDTH 16 0
BBX 16 28 0 -8
BITMAP
0000
0000
0000
0000
0000
0000
FFFC
FFFC
F03C
F03C
F03C
F03C
F03C
F03C
F03C
F03C
F03C
F03C
F03C
F03C
F03C
F03C
F03C
F03C
0000
0000
0000
0000
ENDCHAR
STARTCHAR u003B
ENCODING 59
SWIDTH 1332 0
DWIDTH 16 0
BBX 16 28 0 -8
BITMAP
0000
0000
0000
0000
0000
0000
0000
0000
0000
0000
03C0
03C0
03C0
03C0
0000
0000
0000
0000
03C0
03C0
03C0
03C0
0F00
0F00
0000
0000
0000
0000
ENDCHAR
STARTCHAR u038A
ENCODING 906
SWIDTH 1332 0
DWIDTH 16 0
BBX 16 28 0 -8
BITMAP
0000
0000
0000
0000
0000
0000
CFF0
CFF0
C3C0
C3C0
03C0
03C0
03C0
03C0
03C0
03C0
03C0
03C0
03C0
03C0
03C0
03C0
0FF0
0FF0
0000
0000
0000
0000
ENDCHAR
STARTCHAR u03C0
ENCODING 960
SWIDTH 1332 0
DWIDTH 16 0
BBX 16 28 0 -8
BITMAP
0000
0000
0000
0000
0000
0000
0000
0000
0000
0000
0000
0000
FFFF
FFFF
3C3C
3C3C
3C3C
3C3C
3C3C
3C3C
3C3C
3C3C
3C3C
3C3C
0000
0000
0000
0000
ENDCHAR
STARTCHAR u00B1
ENCODING 177
SWIDTH 1332 0
DWIDTH 16 0
BBX 16 28 0 -8
BITMAP
0000
0000
0000
0000
0000
0000
03C0
03C0
03C0
03C0
3FFC
3FFC
03C0
03C0
03C0
03C0
0000
0000
3FFC
3FFC
0000
0000
0000
0000
0000
0000
0000
0000
ENDCHAR
STARTCHAR u03C2
ENCODING 962
SWIDTH 1332 0
DWIDTH 16 0
BBX 16 28 0 -8
BITMAP
0000
0000
0000
0000
0000
0000
0000
0000
0000
0000
0000
0000
0FFC
0FFC
3C0F
3C0F
F000
F000
3C00
3C00
0FC0
0FC0
00F0
00F0
F03C
F03C
3FF0
3FF0
ENDCHAR
STARTCHAR u0035
ENCODING 53
SWIDTH 1332 0
DWIDTH 16 0
BBX 16 28 0 -8
BITMAP
0000
0000
0000
0000
0000
0000
FFFC
FFFC
F000
F000
F000
F000
F000
F000
FFF0
FFF0
003C
003C
003C
003C
F03C
F03C
3FF0
3FF0
0000
0000
0000
0000
ENDCHAR
STARTCHAR u25BC
ENCODING 9660
SWIDTH 1332 0
DWIDTH 16 0
BBX 16 28 0 -8
BITMAP
0000
0000
0000
0000
0000
0000
0000
0000
FFFC
FFFC
FFFC
FFFC
3FF0
3FF0
3FF0
3FF0
0FC0
0FC0
0FC0
0FC0
0300
0300
0000
0000
0000
0000
0000
0000
ENDCHAR
STARTCHAR u007A
ENCODING 122
SWIDTH 1332 0
DWIDTH 16 0
BBX 16 28 0 -8
BITMAP
0000
0000
0000
0000
0000
0000
0000
0000
0000
0000
0000
0000
FFFC
FFFC
C0F0
C0F0
0FC0
0FC0
3F00
3F00
F03C
F03C
FFFC
FFFC
0000
0000
0000
0000
ENDCHAR
STARTCHAR u203C
ENCODING 8252
SWIDTH 1332 0
DWIDTH 16 0
BBX 16 28 0 -8
BITMAP
0000
0000
0000
0000
3C3C
3C3C
3C3C
3C3C
3C3C
3C3C
3C3C
3C3C
3C3C
3C3C
3C3C
3C3C
3C3C
3C3C
0000
0000
3C3C
3C3C
3C3C
3C3C
0000
0000
0000
0000
ENDCHAR
STARTCHAR u002A
ENCODING 42
SWIDTH 1332 0
DWIDTH 16 0
BBX 16 28 0 -8
BITMAP
0000
0000
0000
0000
0000
0000
0000
0000
0000
0000
0000
0000
3C3C
3C3C
0FF0
0FF0
FFFF
FFFF
0FF0
0FF0
3C3C
3C3C
0000
0000
0000
0000
0000
0000
ENDCHAR
STARTCHAR u03AD
ENCODING 941
SWIDTH 1332 0
DWIDTH 16 0
BBX 16 28 0 -8
BITMAP
0000
0000
0000
0000
0FC0
0FC0
0300
0300
0000
0000
3FF0
3FF0
F03C
F03C
F000
F000
3FC0
3FC0
F000
F000
F03C
F03C
3FF0
3FF0
0000
0000
0000
0000
ENDCHAR
STARTCHAR u002E
ENCODING 46
SWIDTH 1332 0
DWIDTH 16 0
BBX 16 28 0 -8
BITMAP
0000
0000
0000
0000
0000
0000
0000
0000
0000
0000
0000
0000
0000
0000
0000
0000
0000
0000
0000
0000
03C0
03C0
03C0
03C0
0000
0000
0000
0000
ENDCHAR
STARTCHAR u039F
ENCODING 927
SWIDTH 1332 0
DWIDTH 16 0
BBX 16 28 0 -8
BITMAP
0000
0000
0000
0000
0000
0000
3FF0
3FF0
F03C
F03C
F03C
F03C
F03C
F03C
F03C
F03C
F03C
F03C
F03C
F03C
F03C
F03C
3FF0
3FF0
0000
0000
0000
0000
ENDCHAR
STARTCHAR u03CC
ENCODING 972
SWIDTH 1332 0
DWIDTH 16 0
BBX 16 28 0 -8
BITMAP
0000
0000
0000
0000
0000
0000
0FC0
0FC0
0300
0300
0000
0000
3FF0
3FF0
F03C
F03C
F03C
F03C
F03C
F03C
F03C
F03C
3FF0
3FF0
0000
0000
0000
0000
ENDCHAR
STARTCHAR u0069
ENCODING 105
SWIDTH 1332 0
DWIDTH 16 0
BBX 16 28 0 -8
BITMAP
0000
0000
0000
0000
0000
0000
03C0
03C0
03C0
03C0
0000
0000
0FC0
0FC0
03C0
03C0
03C0
03C0
03C0
03C0
03C0
03C0
0FF0
0FF0
0000
0000
0000
0000
ENDCHAR
STARTCHAR u03B7
ENCODING 951
SWIDTH 1332 0
DWIDTH 16 0
BBX 16 28 0 -8
BITMAP
0000
0000
0000
0000
0000
0000
0000
0000
0000
0000
0000
0000
F3F0
F3F0
3C3C
3C3C
3C3C
3C3C
3C3C
3C3C
3C3C
3C3C
3C3C
3C3C
003C
003C
003C
003C
ENDCHAR
STARTCHAR u039D
ENCODING 925
SWIDTH 1332 0
DWIDTH 16 0
BBX 16 28 0 -8
BITMAP
0000
0000
0000
0000
0000
0000
F03C
F03C
FC3C
FC3C
FF3C
FF3C
FFFC
FFFC
F3FC
F3FC
F0FC
F0FC
F03C
F03C
F03C
F03C
F03C
F03C
0000
0000
0000
0000
ENDCHAR
STARTCHAR u0055
ENCODING 85
SWIDTH 1332 0
DWIDTH 16 0
BBX 16 28 0 -8
BITMAP
0000
0000
0000
0000
0000
0000
F03C
F03C
F03C
F03C
F03C
F03C
F03C
F03C
F03C
F03C
F03C
F03C
F03C
F03C
F03C
F03C
3FF0
3FF0
0000
0000
0000
0000
ENDCHAR
STARTCHAR u0024
ENCODING 36
SWIDTH 1332 0
DWIDTH 16 0
BBX 16 28 0 -8
BITMAP
0000
0000
03C0
03C0
03C0
03C0
3FF0
3FF0
F03C
F03C
F00C
F00C
F000
F000
3FF0
3FF0
003C
003C
C03C
C03C
F03C
F03C
3FF0
3FF0
03C0
03C0
03C0
03C0
ENDCHAR
STARTCHAR u00B7
ENCODING 183
SWIDTH 1332 0
DWIDTH 16 0
BBX 16 28 0 -8
BITMAP
0000
0000
03C0
03C0
03C0
03C0
0000
0000
0000
0000
0000
0000
0000
0000
0000
0000
0000
0000
0000
0000
0000
0000
0000
0000
0000
0000
0000
0000
ENDCHAR
STARTCHAR u25B6
ENCODING 9654
SWIDTH 1332 0
DWIDTH 16 0
BBX 16 28 0 -8
BITMAP
0000
0000
C000
C000
F000
F000
FC00
FC00
FF00
FF00
FFC0
FFC0
FFFC
FFFC
FFC0
FFC0
FF00
FF00
FC00
FC00
F000
F000
C000
C000
0000
0000
0000
0000
ENDCHAR
STARTCHAR u005E
ENCODING 94
SWIDTH 1332 0
DWIDTH 16 0
BBX 16 28 0 -8
BITMAP
0300
0300
0FC0
0FC0
3CF0
3CF0
F03C
F03C
0000
0000
0000
0000
0000
0000
0000
0000
0000
0000
0000
0000
0000
0000
0000
0000
0000
0000
0000
0000
ENDCHAR
STARTCHAR u0033
ENCODING 51
SWIDTH 1332 0
DWIDTH 16 0
BBX 16 28 0 -8
BITMAP
0000
0000
0000
0000
0000
0000
3FF0
3FF0
F03C
F03C
003C
003C
003C
003C
0FF0
0FF0
003C
003C
003C
003C
F03C
F03C
3FF0
3FF0
0000
0000
0000
0000
ENDCHAR
STARTCHAR u006F
ENCODING 111
SWIDTH 1332 0
DWIDTH 16 0
BBX 16 28 0 -8
BITMAP
0000
0000
0000
0000
0000
0000
0000
0000
0000
0000
0000
0000
3FF0
3FF0
F03C
F03C
F03C
F03C
F03C
F03C
F03C
F03C
3FF0
3FF0
0000
0000
0000
0000
ENDCHAR
STARTCHAR u0026
ENCODING 38
SWIDTH 1332 0
DWIDTH 16 0
BBX 16 28 0 -8
BITMAP
0000
0000
0000
0000
0000
0000
0FC0
0FC0
3CF0
3CF0
3CF0
3CF0
0FC0
0FC0
3F3C
3F3C
F3F0
F3F0
F0F0
F0F0
F0F0
F0F0
3F3C
3F3C
0000
0000
0000
0000
ENDCHAR
STARTCHAR u0022
ENCODING 34
SWIDTH 1332 0
DWIDTH 16 0
BBX 16 28 0 -8
BITMAP
0000
0000
0000
0000
3C3C
3C3C
3C3C
3C3C
3C3C
3C3C
0C30
0C30
0000
0000
0000
0000
0000
0000
0000
0000
0000
0000
0000
0000
0000
0000
0000
0000
ENDCHAR
STARTCHAR u2319
ENCODING 8985
SWIDTH 1332 0
DWIDTH 16 0
BBX 16 28 0 -8
BITMAP
0000
0000
0000
0000
0000
0000
0000
0000
0000
0000
0000
0000
F000
F000
F000
F000
F000
F000
FFFC
FFFC
0000
0000
0000
0000
0000
0000
0000
0000
ENDCHAR
STARTCHAR u00A9
ENCODING 169
SWIDTH 1332 0
DWIDTH 16 0
BBX 16 28 0 -8
BITMAP
0000
0000
0000
0000
03C0
03C0
3C3C
3C3C
F00F
F00F
C3C3
C3C3
CC03
CC03
CC03
CC03
C3C3
C3C3
F00F
F00F
3C3C
3C3C
03C0
03C0
0000
0000
0000
0000
ENDCHAR
STARTCHAR u00AB
ENCODING 171
SWIDTH 1332 0
DWIDTH 16 0
BBX 16 28 0 -8
BITMAP
0000
0000
0000
0000
0000
0000
0000
0000
0000
0000
0000
0000
0000
0000
0F3C
0F3C
3CF0
3CF0
F3C0
F3C0
3CF0
3CF0
0F3C
0F3C
0000
0000
0000
0000
ENDCHAR
STARTCHAR u03B1
ENCODING 945
SWIDTH 1332 0
DWIDTH 16 0
BBX 16 28 0 -8
BITMAP
0000
0000
0000
0000
0000
0000
0000
0000
0000
0000
0000
0000
3FCF
3FCF
F0FC
F0FC
F0F0
F0F0
F0F0
F0F0
F0F0
F0F0
3FCF
3FCF
0000
0000
0000
0000
ENDCHAR
ENDFONT
